<mxfile host="app.diagrams.net" agent="Mozilla/5.0 (Windows NT 10.0; Win64; x64) AppleWebKit/537.36 (KHTML, like Gecko) Chrome/122.0.0.0 Safari/537.36 Edg/122.0.0.0" version="24.7.4">
  <diagram name="第 1 页" id="eJZK5VLB4pEVgPS30-2I">
    <mxGraphModel dx="1514" dy="865" grid="1" gridSize="10" guides="1" tooltips="1" connect="1" arrows="1" fold="1" page="1" pageScale="1" pageWidth="827" pageHeight="1169" math="0" shadow="0">
      <root>
        <mxCell id="0" />
        <mxCell id="1" parent="0" />
        <mxCell id="kf5pje2jv3knRxvTWSDj-1" value="" style="fontColor=#0066CC;verticalAlign=top;verticalLabelPosition=bottom;labelPosition=center;align=center;html=1;outlineConnect=0;fillColor=#CCCCCC;strokeColor=#6881B3;gradientColor=none;gradientDirection=north;strokeWidth=2;shape=mxgraph.networks.monitor;" vertex="1" parent="1">
          <mxGeometry x="120" y="330" width="80" height="65" as="geometry" />
        </mxCell>
        <mxCell id="kf5pje2jv3knRxvTWSDj-2" value="测试操作平台 10.112.144.224&lt;div&gt;&lt;br&gt;&lt;/div&gt;" style="text;html=1;align=center;verticalAlign=middle;whiteSpace=wrap;rounded=0;" vertex="1" parent="1">
          <mxGeometry x="130" y="410" width="60" height="30" as="geometry" />
        </mxCell>
        <mxCell id="kf5pje2jv3knRxvTWSDj-4" value="" style="endArrow=none;dashed=1;html=1;rounded=0;" edge="1" parent="1">
          <mxGeometry width="50" height="50" relative="1" as="geometry">
            <mxPoint x="200" y="360" as="sourcePoint" />
            <mxPoint x="330" y="200" as="targetPoint" />
          </mxGeometry>
        </mxCell>
        <mxCell id="kf5pje2jv3knRxvTWSDj-5" value="" style="fontColor=#0066CC;verticalAlign=top;verticalLabelPosition=bottom;labelPosition=center;align=center;html=1;outlineConnect=0;fillColor=#CCCCCC;strokeColor=#6881B3;gradientColor=none;gradientDirection=north;strokeWidth=2;shape=mxgraph.networks.server;" vertex="1" parent="1">
          <mxGeometry x="330" y="130" width="100" height="110" as="geometry" />
        </mxCell>
        <mxCell id="kf5pje2jv3knRxvTWSDj-6" value="攻击模拟平台C100" style="text;html=1;align=center;verticalAlign=middle;whiteSpace=wrap;rounded=0;" vertex="1" parent="1">
          <mxGeometry x="350" y="90" width="60" height="30" as="geometry" />
        </mxCell>
        <mxCell id="kf5pje2jv3knRxvTWSDj-7" value="10.112.147.243" style="text;html=1;align=center;verticalAlign=middle;whiteSpace=wrap;rounded=0;" vertex="1" parent="1">
          <mxGeometry x="250" y="170" width="60" height="30" as="geometry" />
        </mxCell>
        <mxCell id="kf5pje2jv3knRxvTWSDj-8" value="攻击IP地址&lt;div&gt;192.168.21-28&lt;/div&gt;" style="text;html=1;align=center;verticalAlign=middle;whiteSpace=wrap;rounded=0;" vertex="1" parent="1">
          <mxGeometry x="414" y="250" width="96" height="20" as="geometry" />
        </mxCell>
        <mxCell id="kf5pje2jv3knRxvTWSDj-9" value="" style="fontColor=#0066CC;verticalAlign=top;verticalLabelPosition=bottom;labelPosition=center;align=center;html=1;outlineConnect=0;fillColor=#CCCCCC;strokeColor=#6881B3;gradientColor=none;gradientDirection=north;strokeWidth=2;shape=mxgraph.networks.server;" vertex="1" parent="1">
          <mxGeometry x="260" y="585" width="90" height="100" as="geometry" />
        </mxCell>
        <mxCell id="kf5pje2jv3knRxvTWSDj-10" value="高性能服务器&lt;div&gt;部署集群&lt;br&gt;&lt;div&gt;192.168.11.1&lt;/div&gt;&lt;/div&gt;" style="text;html=1;align=center;verticalAlign=middle;whiteSpace=wrap;rounded=0;" vertex="1" parent="1">
          <mxGeometry x="262.5" y="700" width="87.5" height="20" as="geometry" />
        </mxCell>
        <mxCell id="kf5pje2jv3knRxvTWSDj-12" value="" style="ellipse;whiteSpace=wrap;html=1;aspect=fixed;dashed=1;dashPattern=12 12;" vertex="1" parent="1">
          <mxGeometry x="430" y="230" width="490" height="490" as="geometry" />
        </mxCell>
        <mxCell id="kf5pje2jv3knRxvTWSDj-13" value="" style="endArrow=none;html=1;rounded=0;entryX=0.029;entryY=0.325;entryDx=0;entryDy=0;entryPerimeter=0;" edge="1" parent="1" source="kf5pje2jv3knRxvTWSDj-9" target="kf5pje2jv3knRxvTWSDj-12">
          <mxGeometry width="50" height="50" relative="1" as="geometry">
            <mxPoint x="390" y="470" as="sourcePoint" />
            <mxPoint x="440" y="420" as="targetPoint" />
          </mxGeometry>
        </mxCell>
        <mxCell id="kf5pje2jv3knRxvTWSDj-14" value="" style="endArrow=none;html=1;rounded=0;entryX=0.448;entryY=1.002;entryDx=0;entryDy=0;entryPerimeter=0;" edge="1" parent="1" source="kf5pje2jv3knRxvTWSDj-9" target="kf5pje2jv3knRxvTWSDj-12">
          <mxGeometry width="50" height="50" relative="1" as="geometry">
            <mxPoint x="390" y="470" as="sourcePoint" />
            <mxPoint x="440" y="420" as="targetPoint" />
          </mxGeometry>
        </mxCell>
        <mxCell id="kf5pje2jv3knRxvTWSDj-15" value="" style="aspect=fixed;sketch=0;html=1;dashed=0;whitespace=wrap;verticalLabelPosition=bottom;verticalAlign=top;fillColor=#2875E2;strokeColor=#ffffff;points=[[0.005,0.63,0],[0.1,0.2,0],[0.9,0.2,0],[0.5,0,0],[0.995,0.63,0],[0.72,0.99,0],[0.5,1,0],[0.28,0.99,0]];shape=mxgraph.kubernetes.icon2;kubernetesLabel=1;prIcon=pod" vertex="1" parent="1">
          <mxGeometry x="535" y="310" width="50" height="48" as="geometry" />
        </mxCell>
        <mxCell id="kf5pje2jv3knRxvTWSDj-16" value="" style="aspect=fixed;sketch=0;html=1;dashed=0;whitespace=wrap;verticalLabelPosition=bottom;verticalAlign=top;fillColor=#2875E2;strokeColor=#ffffff;points=[[0.005,0.63,0],[0.1,0.2,0],[0.9,0.2,0],[0.5,0,0],[0.995,0.63,0],[0.72,0.99,0],[0.5,1,0],[0.28,0.99,0]];shape=mxgraph.kubernetes.icon2;kubernetesLabel=1;prIcon=pod" vertex="1" parent="1">
          <mxGeometry x="505" y="487" width="50" height="48" as="geometry" />
        </mxCell>
        <mxCell id="kf5pje2jv3knRxvTWSDj-17" value="" style="aspect=fixed;sketch=0;html=1;dashed=0;whitespace=wrap;verticalLabelPosition=bottom;verticalAlign=top;fillColor=#2875E2;strokeColor=#ffffff;points=[[0.005,0.63,0],[0.1,0.2,0],[0.9,0.2,0],[0.5,0,0],[0.995,0.63,0],[0.72,0.99,0],[0.5,1,0],[0.28,0.99,0]];shape=mxgraph.kubernetes.icon2;kubernetesLabel=1;prIcon=pod" vertex="1" parent="1">
          <mxGeometry x="500" y="390" width="50" height="48" as="geometry" />
        </mxCell>
        <mxCell id="kf5pje2jv3knRxvTWSDj-18" value="" style="aspect=fixed;sketch=0;html=1;dashed=0;whitespace=wrap;verticalLabelPosition=bottom;verticalAlign=top;fillColor=#2875E2;strokeColor=#ffffff;points=[[0.005,0.63,0],[0.1,0.2,0],[0.9,0.2,0],[0.5,0,0],[0.995,0.63,0],[0.72,0.99,0],[0.5,1,0],[0.28,0.99,0]];shape=mxgraph.kubernetes.icon2;kubernetesLabel=1;prIcon=pod" vertex="1" parent="1">
          <mxGeometry x="545" y="572" width="50" height="48" as="geometry" />
        </mxCell>
        <mxCell id="kf5pje2jv3knRxvTWSDj-21" value="反向代理节点 192.168.11.101" style="text;html=1;align=center;verticalAlign=middle;whiteSpace=wrap;rounded=0;" vertex="1" parent="1">
          <mxGeometry x="515" y="362" width="70" height="28" as="geometry" />
        </mxCell>
        <mxCell id="kf5pje2jv3knRxvTWSDj-22" value="反向代理节点&amp;nbsp;&lt;div&gt;192.168.11.102&lt;/div&gt;" style="text;html=1;align=center;verticalAlign=middle;whiteSpace=wrap;rounded=0;" vertex="1" parent="1">
          <mxGeometry x="500" y="440" width="60" height="30" as="geometry" />
        </mxCell>
        <mxCell id="kf5pje2jv3knRxvTWSDj-23" value="&lt;div&gt;反向代理节点&lt;br&gt;&lt;/div&gt;&amp;nbsp;192.168.11.103" style="text;html=1;align=center;verticalAlign=middle;whiteSpace=wrap;rounded=0;" vertex="1" parent="1">
          <mxGeometry x="500" y="535" width="60" height="30" as="geometry" />
        </mxCell>
        <mxCell id="kf5pje2jv3knRxvTWSDj-24" value="反向代理节点&lt;div&gt;&amp;nbsp;192.168.11.104&lt;/div&gt;" style="text;html=1;align=center;verticalAlign=middle;whiteSpace=wrap;rounded=0;" vertex="1" parent="1">
          <mxGeometry x="535" y="620" width="60" height="30" as="geometry" />
        </mxCell>
        <mxCell id="kf5pje2jv3knRxvTWSDj-25" value="" style="aspect=fixed;sketch=0;html=1;dashed=0;whitespace=wrap;verticalLabelPosition=bottom;verticalAlign=top;fillColor=#2875E2;strokeColor=#ffffff;points=[[0.005,0.63,0],[0.1,0.2,0],[0.9,0.2,0],[0.5,0,0],[0.995,0.63,0],[0.72,0.99,0],[0.5,1,0],[0.28,0.99,0]];shape=mxgraph.kubernetes.icon2;kubernetesLabel=1;prIcon=pod" vertex="1" parent="1">
          <mxGeometry x="850" y="410" width="50" height="48" as="geometry" />
        </mxCell>
        <mxCell id="kf5pje2jv3knRxvTWSDj-26" value="" style="aspect=fixed;sketch=0;html=1;dashed=0;whitespace=wrap;verticalLabelPosition=bottom;verticalAlign=top;fillColor=#2875E2;strokeColor=#ffffff;points=[[0.005,0.63,0],[0.1,0.2,0],[0.9,0.2,0],[0.5,0,0],[0.995,0.63,0],[0.72,0.99,0],[0.5,1,0],[0.28,0.99,0]];shape=mxgraph.kubernetes.icon2;kubernetesLabel=1;prIcon=pod" vertex="1" parent="1">
          <mxGeometry x="730" y="410" width="50" height="48" as="geometry" />
        </mxCell>
        <mxCell id="kf5pje2jv3knRxvTWSDj-27" value="" style="aspect=fixed;sketch=0;html=1;dashed=0;whitespace=wrap;verticalLabelPosition=bottom;verticalAlign=top;fillColor=#2875E2;strokeColor=#ffffff;points=[[0.005,0.63,0],[0.1,0.2,0],[0.9,0.2,0],[0.5,0,0],[0.995,0.63,0],[0.72,0.99,0],[0.5,1,0],[0.28,0.99,0]];shape=mxgraph.kubernetes.icon2;kubernetesLabel=1;prIcon=pod" vertex="1" parent="1">
          <mxGeometry x="710" y="300" width="50" height="48" as="geometry" />
        </mxCell>
        <mxCell id="kf5pje2jv3knRxvTWSDj-28" value="" style="aspect=fixed;sketch=0;html=1;dashed=0;whitespace=wrap;verticalLabelPosition=bottom;verticalAlign=top;fillColor=#2875E2;strokeColor=#ffffff;points=[[0.005,0.63,0],[0.1,0.2,0],[0.9,0.2,0],[0.5,0,0],[0.995,0.63,0],[0.72,0.99,0],[0.5,1,0],[0.28,0.99,0]];shape=mxgraph.kubernetes.icon2;kubernetesLabel=1;prIcon=pod" vertex="1" parent="1">
          <mxGeometry x="740" y="560" width="50" height="48" as="geometry" />
        </mxCell>
        <mxCell id="kf5pje2jv3knRxvTWSDj-29" value="&lt;div&gt;管理节点&lt;/div&gt;" style="text;html=1;align=center;verticalAlign=middle;whiteSpace=wrap;rounded=0;" vertex="1" parent="1">
          <mxGeometry x="700" y="348.5" width="70" height="28" as="geometry" />
        </mxCell>
        <mxCell id="kf5pje2jv3knRxvTWSDj-30" value="&lt;div&gt;调度器节点&lt;/div&gt;" style="text;html=1;align=center;verticalAlign=middle;whiteSpace=wrap;rounded=0;" vertex="1" parent="1">
          <mxGeometry x="725" y="459" width="70" height="28" as="geometry" />
        </mxCell>
        <mxCell id="kf5pje2jv3knRxvTWSDj-31" value="&lt;div&gt;数据库节点&lt;/div&gt;" style="text;html=1;align=center;verticalAlign=middle;whiteSpace=wrap;rounded=0;" vertex="1" parent="1">
          <mxGeometry x="850" y="449" width="70" height="28" as="geometry" />
        </mxCell>
        <mxCell id="kf5pje2jv3knRxvTWSDj-32" value="真实服务结点&lt;div&gt;192.168.11.105&lt;br&gt;&lt;/div&gt;" style="text;html=1;align=center;verticalAlign=middle;whiteSpace=wrap;rounded=0;" vertex="1" parent="1">
          <mxGeometry x="725" y="618" width="80" height="32" as="geometry" />
        </mxCell>
        <mxCell id="kf5pje2jv3knRxvTWSDj-34" value="" style="fontColor=#0066CC;verticalAlign=top;verticalLabelPosition=bottom;labelPosition=center;align=center;html=1;outlineConnect=0;fillColor=#CCCCCC;strokeColor=#6881B3;gradientColor=none;gradientDirection=north;strokeWidth=2;shape=mxgraph.networks.server;" vertex="1" parent="1">
          <mxGeometry x="1020" y="395" width="90" height="100" as="geometry" />
        </mxCell>
        <mxCell id="kf5pje2jv3knRxvTWSDj-35" value="高性能服务器&lt;div&gt;测试服务质量&lt;br&gt;&lt;div&gt;192.168.11.2&lt;/div&gt;&lt;/div&gt;" style="text;html=1;align=center;verticalAlign=middle;whiteSpace=wrap;rounded=0;" vertex="1" parent="1">
          <mxGeometry x="1020" y="510" width="85" height="20" as="geometry" />
        </mxCell>
        <mxCell id="kf5pje2jv3knRxvTWSDj-36" value="" style="endArrow=none;html=1;rounded=0;exitX=1.004;exitY=0.464;exitDx=0;exitDy=0;exitPerimeter=0;" edge="1" parent="1" source="kf5pje2jv3knRxvTWSDj-12" target="kf5pje2jv3knRxvTWSDj-34">
          <mxGeometry width="50" height="50" relative="1" as="geometry">
            <mxPoint x="909" y="639" as="sourcePoint" />
            <mxPoint x="1020" y="443" as="targetPoint" />
          </mxGeometry>
        </mxCell>
        <mxCell id="kf5pje2jv3knRxvTWSDj-37" value="" style="endArrow=none;html=1;rounded=0;exitX=0.005;exitY=0.63;exitDx=0;exitDy=0;exitPerimeter=0;entryX=0.995;entryY=0.63;entryDx=0;entryDy=0;entryPerimeter=0;" edge="1" parent="1" source="kf5pje2jv3knRxvTWSDj-25" target="kf5pje2jv3knRxvTWSDj-26">
          <mxGeometry width="50" height="50" relative="1" as="geometry">
            <mxPoint x="730" y="500" as="sourcePoint" />
            <mxPoint x="780" y="450" as="targetPoint" />
          </mxGeometry>
        </mxCell>
        <mxCell id="kf5pje2jv3knRxvTWSDj-38" value="" style="endArrow=none;html=1;rounded=0;exitX=0.995;exitY=0.63;exitDx=0;exitDy=0;exitPerimeter=0;entryX=0.005;entryY=0.63;entryDx=0;entryDy=0;entryPerimeter=0;" edge="1" parent="1" source="kf5pje2jv3knRxvTWSDj-15" target="kf5pje2jv3knRxvTWSDj-27">
          <mxGeometry width="50" height="50" relative="1" as="geometry">
            <mxPoint x="660" y="380" as="sourcePoint" />
            <mxPoint x="710" y="330" as="targetPoint" />
          </mxGeometry>
        </mxCell>
        <mxCell id="kf5pje2jv3knRxvTWSDj-39" value="" style="endArrow=none;html=1;rounded=0;entryX=0.005;entryY=0.63;entryDx=0;entryDy=0;entryPerimeter=0;exitX=0.995;exitY=0.63;exitDx=0;exitDy=0;exitPerimeter=0;" edge="1" parent="1" source="kf5pje2jv3knRxvTWSDj-15" target="kf5pje2jv3knRxvTWSDj-26">
          <mxGeometry width="50" height="50" relative="1" as="geometry">
            <mxPoint x="580" y="330" as="sourcePoint" />
            <mxPoint x="630" y="290" as="targetPoint" />
          </mxGeometry>
        </mxCell>
        <mxCell id="kf5pje2jv3knRxvTWSDj-40" value="" style="endArrow=none;html=1;rounded=0;entryX=0.005;entryY=0.63;entryDx=0;entryDy=0;entryPerimeter=0;exitX=0.995;exitY=0.63;exitDx=0;exitDy=0;exitPerimeter=0;" edge="1" parent="1" source="kf5pje2jv3knRxvTWSDj-17" target="kf5pje2jv3knRxvTWSDj-26">
          <mxGeometry width="50" height="50" relative="1" as="geometry">
            <mxPoint x="545" y="415" as="sourcePoint" />
            <mxPoint x="715" y="500" as="targetPoint" />
          </mxGeometry>
        </mxCell>
        <mxCell id="kf5pje2jv3knRxvTWSDj-41" value="" style="endArrow=none;html=1;rounded=0;entryX=0.995;entryY=0.63;entryDx=0;entryDy=0;entryPerimeter=0;" edge="1" parent="1" target="kf5pje2jv3knRxvTWSDj-16">
          <mxGeometry width="50" height="50" relative="1" as="geometry">
            <mxPoint x="730" y="440" as="sourcePoint" />
            <mxPoint x="740" y="450" as="targetPoint" />
          </mxGeometry>
        </mxCell>
        <mxCell id="kf5pje2jv3knRxvTWSDj-42" value="" style="endArrow=none;html=1;rounded=0;exitX=0.995;exitY=0.63;exitDx=0;exitDy=0;exitPerimeter=0;entryX=0.005;entryY=0.63;entryDx=0;entryDy=0;entryPerimeter=0;" edge="1" parent="1" source="kf5pje2jv3knRxvTWSDj-18" target="kf5pje2jv3knRxvTWSDj-26">
          <mxGeometry width="50" height="50" relative="1" as="geometry">
            <mxPoint x="570" y="440" as="sourcePoint" />
            <mxPoint x="740" y="450" as="targetPoint" />
          </mxGeometry>
        </mxCell>
        <mxCell id="kf5pje2jv3knRxvTWSDj-43" value="" style="endArrow=none;html=1;rounded=0;entryX=0.005;entryY=0.63;entryDx=0;entryDy=0;entryPerimeter=0;exitX=0.995;exitY=0.63;exitDx=0;exitDy=0;exitPerimeter=0;" edge="1" parent="1" source="kf5pje2jv3knRxvTWSDj-15" target="kf5pje2jv3knRxvTWSDj-28">
          <mxGeometry width="50" height="50" relative="1" as="geometry">
            <mxPoint x="580" y="450" as="sourcePoint" />
            <mxPoint x="760" y="470" as="targetPoint" />
          </mxGeometry>
        </mxCell>
        <mxCell id="kf5pje2jv3knRxvTWSDj-44" value="" style="endArrow=none;html=1;rounded=0;entryX=0.005;entryY=0.63;entryDx=0;entryDy=0;entryPerimeter=0;exitX=0.995;exitY=0.63;exitDx=0;exitDy=0;exitPerimeter=0;" edge="1" parent="1" source="kf5pje2jv3knRxvTWSDj-17" target="kf5pje2jv3knRxvTWSDj-28">
          <mxGeometry width="50" height="50" relative="1" as="geometry">
            <mxPoint x="590" y="460" as="sourcePoint" />
            <mxPoint x="770" y="480" as="targetPoint" />
          </mxGeometry>
        </mxCell>
        <mxCell id="kf5pje2jv3knRxvTWSDj-45" value="" style="endArrow=none;html=1;rounded=0;exitX=0.995;exitY=0.63;exitDx=0;exitDy=0;exitPerimeter=0;" edge="1" parent="1" source="kf5pje2jv3knRxvTWSDj-18">
          <mxGeometry width="50" height="50" relative="1" as="geometry">
            <mxPoint x="600" y="470" as="sourcePoint" />
            <mxPoint x="740" y="590" as="targetPoint" />
          </mxGeometry>
        </mxCell>
        <mxCell id="kf5pje2jv3knRxvTWSDj-46" value="" style="endArrow=none;html=1;rounded=0;exitX=0.995;exitY=0.63;exitDx=0;exitDy=0;exitPerimeter=0;" edge="1" parent="1" source="kf5pje2jv3knRxvTWSDj-16">
          <mxGeometry width="50" height="50" relative="1" as="geometry">
            <mxPoint x="610" y="480" as="sourcePoint" />
            <mxPoint x="740" y="590" as="targetPoint" />
          </mxGeometry>
        </mxCell>
        <mxCell id="kf5pje2jv3knRxvTWSDj-47" value="" style="endArrow=none;html=1;rounded=0;entryX=0.049;entryY=0.292;entryDx=0;entryDy=0;entryPerimeter=0;" edge="1" parent="1" source="kf5pje2jv3knRxvTWSDj-5" target="kf5pje2jv3knRxvTWSDj-12">
          <mxGeometry width="50" height="50" relative="1" as="geometry">
            <mxPoint x="343" y="595" as="sourcePoint" />
            <mxPoint x="454" y="399" as="targetPoint" />
          </mxGeometry>
        </mxCell>
      </root>
    </mxGraphModel>
  </diagram>
</mxfile>
